# xmcd CD database file
#
# Track frame offsets:
#	150
#	15300
#	30825
#	45662
#	59135
#	73642
#	89352
#	101177
#	113760
#	124865
#	138367
#	151595
#	172617
#	184692
#	198150
#	215120
#	229892
#	244062
#	261145
#	279135
#	294355
#	312272
#	327497
#
# Disc length: 4554 seconds
#
# Revision: 2
# Processed by: cddbd v1.5.2PL0 Copyright (c) Steve Scherf et al.
# Submitted via: CDex 1.51
#
DISCID=3d11c817
DTITLE=Mike Brant - Le meilleur de Mike Brant - CD 2
DYEAR=2000
DGENRE=Francais
TTITLE0=Viens ce soir
TTITLE1=Toi mon enfant
TTITLE2=C'est comme ca que je t'aime
TTITLE3=En plein coeur de ta jeunesse
TTITLE4=On se rerouve par hasard
TTITLE5=Serre les poings et bats toi
TTITLE6=Qui pourra te dire
TTITLE7=Elle a gardé ses yeux d'enfant
TTITLE8=Das ist mein lied
TTITLE9=Attendez
TTITLE10=Je vis la vie que j'ai choisie
TTITLE11=Toutes les couleurs
TTITLE12=Essayez de lui mentir
TTITLE13=Que tu es belle
TTITLE14=Dis-lui
TTITLE15=L'oiseau blanc et l'oiseau noir
TTITLE16=Donne un un peu de toi
TTITLE17=Summertime
TTITLE18=My way
TTITLE19=Vorrei, vorrei
TTITLE20=Cuore di bambina
TTITLE21=Liebe will mehr
TTITLE22=Mein herz ist immer noch bei dir
EXTD=YEAR: 2000
EXTT0=
EXTT1=
EXTT2=
EXTT3=
EXTT4=
EXTT5=
EXTT6=
EXTT7=
EXTT8=
EXTT9=
EXTT10=
EXTT11=
EXTT12=
EXTT13=
EXTT14=
EXTT15=
EXTT16=
EXTT17=
EXTT18=
EXTT19=
EXTT20=
EXTT21=
EXTT22=
PLAYORDER=
